<svg width="76" height="54" viewBox="0 0 76 54" fill="none" xmlns="http://www.w3.org/2000/svg">
<path d="M47 40C45.335 40 44 41.335 44 43C44 43.7956 44.3161 44.5587 44.8787 45.1213C45.4413 45.6839 46.2044 46 47 46C47.7956 46 48.5587 45.6839 49.1213 45.1213C49.6839 44.5587 50 43.7956 50 43C50 42.2044 49.6839 41.4413 49.1213 40.8787C48.5587 40.3161 47.7956 40 47 40ZM23 16V19H26L31.4 30.385L29.36 34.06C29.135 34.48 29 34.975 29 35.5C29 36.2956 29.3161 37.0587 29.8787 37.6213C30.4413 38.1839 31.2044 38.5 32 38.5H50V35.5H32.63C32.5305 35.5 32.4352 35.4605 32.3648 35.3902C32.2945 35.3198 32.255 35.2245 32.255 35.125C32.255 35.05 32.27 34.99 32.3 34.945L33.65 32.5H44.825C45.95 32.5 46.94 31.87 47.45 30.955L52.82 21.25C52.925 21.01 53 20.755 53 20.5C53 20.1022 52.842 19.7206 52.5607 19.4393C52.2794 19.158 51.8978 19 51.5 19H29.315L27.905 16M32 40C30.335 40 29 41.335 29 43C29 43.7956 29.3161 44.5587 29.8787 45.1213C30.4413 45.6839 31.2044 46 32 46C32.7956 46 33.5587 45.6839 34.1213 45.1213C34.6839 44.5587 35 43.7956 35 43C35 42.2044 34.6839 41.4413 34.1213 40.8787C33.5587 40.3161 32.7956 40 32 40Z" fill="#007E71"/>
</svg>
