<svg width="75" height="54" viewBox="0 0 75 54" fill="none" xmlns="http://www.w3.org/2000/svg">
<path d="M34.4665 40.6429H52.3999V42.7857H34.4665V40.6429ZM25.7176 41.7143L22.4127 44.4786L24.2189 46L29.3427 41.7143L24.2189 37.4286L22.3999 38.9393L25.7176 41.7143ZM34.4665 29.9286H52.3999V32.0714H34.4665V29.9286ZM25.7176 31L22.4127 33.7643L24.2189 35.2857L29.3427 31L24.2189 26.7143L22.3999 28.225L25.7176 31ZM34.4665 19.2143H52.3999V21.3571H34.4665V19.2143ZM25.7176 20.2857L22.4127 23.05L24.2189 24.5714L29.3427 20.2857L24.2189 16L22.3999 17.5107L25.7176 20.2857Z" fill="#007E71"/>
</svg>
