<svg width="31" height="30" viewBox="0 0 31 30" fill="none" xmlns="http://www.w3.org/2000/svg">
<path d="M28.8253 16.8516C29.7108 16.8516 30.4921 16.0312 30.4921 14.9707C30.5442 14.4434 30.3359 13.9746 29.9192 13.5645L16.6212 0.410156C16.3086 0.117188 15.8919 0 15.5273 0C15.1627 0 14.746 0.0585938 14.3814 0.46875L1.02088 13.5645C0.656263 13.9746 0.5 14.4434 0.5 14.9707C0.5 16.0254 1.22923 16.8516 2.16681 16.8516H3.83362V26.25C3.83362 28.3184 5.32854 30 7.16723 30H23.8562C25.7053 30 27.2002 28.3125 27.1898 26.2324L27.1533 16.8457H28.8201L28.8253 16.8516ZM13.8345 12.1875C13.8345 11.6719 14.2095 11.25 14.6679 11.25H16.3347C16.7931 11.25 17.1681 11.6719 17.1681 12.1875V15H19.6683C20.1267 15 20.5017 15.4219 20.5017 15.9375V17.8125C20.5017 18.3281 20.1267 18.75 19.6683 18.75H17.1681V21.5625C17.1681 22.0781 16.7931 22.5 16.3347 22.5H14.6679C14.2095 22.5 13.8345 22.0781 13.8345 21.5625V18.75H11.3343C10.8759 18.75 10.5009 18.3281 10.5009 17.8125V15.9375C10.5009 15.4219 10.8759 15 11.3343 15H13.8345V12.1875Z" fill="#007E71"/>
</svg>
