<svg width="26" height="26" viewBox="0 0 26 26" fill="none" xmlns="http://www.w3.org/2000/svg">
<path d="M11.6667 22.3333C14.4956 22.3333 17.2088 21.2095 19.2091 19.2091C21.2095 17.2088 22.3333 14.4956 22.3333 11.6667C22.3333 8.83769 21.2095 6.12458 19.2091 4.12419C17.2088 2.12381 14.4956 1 11.6667 1C8.83769 1 6.12458 2.12381 4.12419 4.12419C2.12381 6.12458 1 8.83769 1 11.6667C1 14.4956 2.12381 17.2088 4.12419 19.2091C6.12458 21.2095 8.83769 22.3333 11.6667 22.3333Z" fill="#007E71" fill-opacity="0.25"/>
<path d="M25 25L19.6667 19.6667M22.3333 11.6667C22.3333 14.4956 21.2095 17.2088 19.2091 19.2091C17.2088 21.2095 14.4956 22.3333 11.6667 22.3333C8.83769 22.3333 6.12458 21.2095 4.12419 19.2091C2.12381 17.2088 1 14.4956 1 11.6667C1 8.83769 2.12381 6.12458 4.12419 4.12419C6.12458 2.12381 8.83769 1 11.6667 1C14.4956 1 17.2088 2.12381 19.2091 4.12419C21.2095 6.12458 22.3333 8.83769 22.3333 11.6667Z" stroke="#007E71" stroke-width="2" stroke-miterlimit="10" stroke-linecap="round" stroke-linejoin="round"/>
</svg>
