<svg width="94" height="78" viewBox="0 0 94 78" fill="none" xmlns="http://www.w3.org/2000/svg">
<path d="M46.9004 23C52.2776 23 56.701 27.5323 56.7012 33.2002V34.3271C56.7012 35.7713 57.0857 37.1885 57.8164 38.4219L57.9668 38.666L59.7402 41.4229C60.9741 43.3441 60.072 45.8882 58.0742 46.5938L57.877 46.6562C50.925 48.625 43.5754 48.6866 36.5986 46.8408L35.9248 46.6562H35.9238C33.8563 46.0719 32.8509 43.5693 33.9482 41.6104L34.0615 41.4229L35.834 38.666L35.8359 38.6641C36.6122 37.45 37.0464 36.0509 37.0967 34.6143L37.1016 34.3262V33.2002C37.1017 27.5322 41.5235 23.0002 46.9004 23Z" fill="#007E71" fill-opacity="0.25" stroke="#007E71" stroke-width="2"/>
<path d="M39.2891 48.473C39.8119 50.0797 40.8297 51.4797 42.1969 52.4725C43.564 53.4653 45.2102 54 46.8998 54C48.5893 54 50.2356 53.4653 51.6027 52.4725C52.9698 51.4797 53.9877 50.0797 54.5105 48.473C49.4783 49.4171 44.3229 49.4171 39.2891 48.473Z" fill="#007E71"/>
</svg>
